<?xml version="1.0" encoding="UTF-8"?>
<!DOCTYPE svg PUBLIC "-//W3C//DTD SVG 1.1//EN" "http://www.w3.org/Graphics/SVG/1.1/DTD/svg11.dtd">
<!-- Creator: CorelDRAW 2021.5 -->
<svg xmlns="http://www.w3.org/2000/svg" xml:space="preserve" width="59.6031mm" height="18.737mm" version="1.1" style="shape-rendering:geometricPrecision; text-rendering:geometricPrecision; image-rendering:optimizeQuality; fill-rule:evenodd; clip-rule:evenodd"
viewBox="0 0 242.33 76.18"
 xmlns:xlink="http://www.w3.org/1999/xlink"
 xmlns:xodm="http://www.corel.com/coreldraw/odm/2003">
 <defs>
  <style type="text/css">
   <![CDATA[
    .fil0 {fill:#1C442D;fill-rule:nonzero}
   ]]>
  </style>
 </defs>
 <g id="Plan_x0020_1">
  <metadata id="CorelCorpID_0Corel-Layer"/>
  <path class="fil0" d="M24.11 10.73c0,22.98 0,18.84 0,56.22 0,1.19 0.22,2.06 0.66,2.59 0.44,0.53 1.16,0.8 2.17,0.8 0.69,0 1.51,-0.2 2.45,-0.61 0.94,-0.41 1.82,-1.11 2.64,-2.12l1.41 1.13c-1.32,2.26 -3.06,4.06 -5.23,5.41 -2.17,1.35 -4.88,2.02 -8.14,2.02 -2.07,0 -3.94,-0.27 -5.6,-0.8 -1.66,-0.53 -3.03,-1.33 -4.1,-2.4 -1.38,-1.38 -2.26,-3.09 -2.64,-5.13 -0.38,-2.04 -0.57,-4.69 -0.57,-7.96l0 -32.02 -7.16 0 0 -1.88 7.16 0 0 -11.11c3.33,0 6.36,-0.33 9.09,-0.99 2.73,-0.66 5.35,-1.71 7.86,-3.15zm1.46 18l-0.01 -0.05 0.09 0.11 -0.08 -0.06zm-0.22 -2.04c-0.12,-11.26 19.52,-14.91 27.16,-7.14 -9.24,5.98 -17.45,16 -26.35,9.62 3.95,-3.62 8.92,-6.83 16.27,-9.05 -6.42,0.61 -12.11,3.48 -17.08,6.57zm34.55 -2.02c5.52,0 9.87,1.62 13.04,4.85 3.17,3.23 4.76,8.65 4.76,16.24l-29.47 0 -0.19 -1.79 15.91 0c0.06,-3.08 -0.06,-5.92 -0.38,-8.52 -0.31,-2.6 -0.82,-4.69 -1.51,-6.26 -0.69,-1.57 -1.63,-2.35 -2.82,-2.35 -1.7,0 -3.08,1.33 -4.14,4 -1.07,2.67 -1.76,7.24 -2.07,13.7l0.38 0.75c-0.06,0.63 -0.09,1.26 -0.09,1.88 0,0.63 0,1.29 0,1.98 0,4.4 0.55,7.82 1.65,10.26 1.1,2.45 2.48,4.14 4.14,5.08 1.66,0.94 3.34,1.41 5.04,1.41 1.25,0 2.95,-0.33 5.08,-0.99 2.13,-0.66 4.24,-2.43 6.31,-5.32l1.6 0.57c-0.75,2.51 -1.96,5 -3.62,7.49 -1.66,2.48 -3.81,4.52 -6.45,6.12 -2.64,1.6 -5.84,2.4 -9.6,2.4 -4.02,0 -7.67,-0.82 -10.97,-2.45 -3.3,-1.63 -5.92,-4.33 -7.86,-8.1 -1.95,-3.77 -2.92,-8.82 -2.92,-15.16 0,-6.03 1.07,-10.94 3.2,-14.74 2.13,-3.8 5.04,-6.59 8.71,-8.38 3.67,-1.79 7.77,-2.68 12.29,-2.68zm34.46 50.85c-4.27,0 -7.36,-1.15 -9.28,-3.44 -1.91,-2.29 -2.87,-4.94 -2.87,-7.96 0,-2.7 0.6,-4.9 1.79,-6.59 1.19,-1.69 2.75,-3.08 4.66,-4.14 1.91,-1.07 3.94,-1.96 6.07,-2.68 2.13,-0.72 4.16,-1.43 6.07,-2.12 1.91,-0.69 3.47,-1.49 4.66,-2.4 1.19,-0.91 1.79,-2.09 1.79,-3.53l0 -8.38c0,-1 -0.17,-2.1 -0.52,-3.3 -0.35,-1.19 -0.99,-2.23 -1.93,-3.11 -0.94,-0.88 -2.35,-1.32 -4.24,-1.32 -1,0 -1.96,0.14 -2.87,0.42 -0.91,0.28 -1.71,0.67 -2.4,1.18 2.2,0.82 3.8,1.96 4.8,3.44 1.01,1.48 1.51,3.09 1.51,4.85 0,2.51 -0.88,4.49 -2.64,5.93 -1.76,1.44 -3.83,2.17 -6.22,2.17 -2.51,0 -4.46,-0.78 -5.84,-2.35 -1.38,-1.57 -2.07,-3.52 -2.07,-5.84 0,-1.95 0.49,-3.59 1.46,-4.94 0.97,-1.35 2.43,-2.59 4.38,-3.72 1.88,-1.07 4.14,-1.84 6.78,-2.31 2.64,-0.47 5.4,-0.71 8.29,-0.71 3.08,0 5.93,0.3 8.57,0.9 2.64,0.6 4.9,1.87 6.78,3.81 1.32,1.38 2.17,3.11 2.54,5.18 0.38,2.07 0.56,4.74 0.56,8l0 25.24c0,1.57 0.11,2.64 0.33,3.2 0.22,0.56 0.61,0.85 1.18,0.85 0.5,0 0.99,-0.16 1.46,-0.47 0.47,-0.32 0.93,-0.63 1.37,-0.94l0.94 1.6c-1.38,1.19 -3.09,2.07 -5.13,2.64 -2.04,0.57 -4.19,0.85 -6.45,0.85 -4.08,0 -6.8,-0.72 -8.15,-2.17 -1.35,-1.44 -2.09,-3.11 -2.21,-4.99 -1.25,2.07 -2.95,3.78 -5.08,5.13 -2.13,1.35 -4.83,2.02 -8.1,2.02zm9.42 -7.53c0.69,0 1.3,-0.11 1.84,-0.33 0.53,-0.22 1.08,-0.64 1.65,-1.27l0 -19.87c-0.63,1.13 -1.41,2.12 -2.35,2.97 -0.94,0.85 -1.87,1.76 -2.78,2.73 -0.91,0.97 -1.66,2.17 -2.26,3.58 -0.6,1.41 -0.89,3.22 -0.89,5.41 0,2.51 0.45,4.27 1.36,5.27 0.91,1 2.06,1.51 3.44,1.51zm38.82 -1.13c-0.44,1.51 -0.44,2.54 0,3.11 0.44,0.56 0.94,0.85 1.51,0.85 0.31,0 0.94,-0.3 1.88,-0.89 0.94,-0.6 1.91,-2.28 2.92,-5.04l1.98 -5.27 1.79 0 -2.35 6.88c-0.94,2.7 -2.18,4.74 -3.72,6.12 -1.54,1.38 -3.15,2.32 -4.85,2.82 -1.69,0.5 -3.29,0.75 -4.8,0.75 -2.64,0 -4.82,-0.61 -6.55,-1.84 -1.73,-1.22 -2.81,-3.03 -3.25,-5.41 -0.44,-2.39 -0.13,-5.37 0.94,-8.95l14.41 -47.93c0.63,-2.13 0.56,-3.7 -0.19,-4.71 -0.75,-1 -2.67,-1.51 -5.74,-1.51l0.66 -1.98c5.15,-0.06 9.72,-0.42 13.7,-1.08 3.99,-0.66 7.83,-1.59 11.54,-2.78l-19.87 66.86zm22.84 -11.77c2.01,-0.94 3.99,-2.07 5.93,-3.39 1.95,-1.32 3.74,-2.76 5.37,-4.33 2.51,-2.45 4.57,-5.24 6.17,-8.38 1.6,-3.14 2.4,-6.53 2.4,-10.17 0,-0.88 -0.13,-1.49 -0.38,-1.84 -0.25,-0.35 -0.63,-0.52 -1.13,-0.52 -1.57,0 -3.3,1.07 -5.18,3.2 -1.88,2.14 -3.67,4.9 -5.37,8.29 -1.7,3.39 -3.08,7.06 -4.14,11.02 -1.07,3.96 -1.6,7.72 -1.6,11.3 0,3.64 0.72,6.07 2.17,7.3 1.44,1.22 3.33,1.84 5.65,1.84 1.26,0 3.14,-0.47 5.65,-1.41 2.51,-0.94 5.02,-2.67 7.53,-5.18l1.51 0.75c-1.38,2.07 -3.2,4.08 -5.46,6.03 -2.26,1.95 -4.93,3.53 -8,4.76 -3.08,1.22 -6.53,1.84 -10.36,1.84 -4.4,0 -8.21,-1.11 -11.44,-3.34 -3.23,-2.23 -4.85,-5.54 -4.85,-9.93 0,-3.7 0.58,-7.38 1.74,-11.02 1.16,-3.64 2.81,-7.09 4.94,-10.36 2.13,-3.27 4.69,-6.17 7.67,-8.71 2.98,-2.54 6.29,-4.54 9.93,-5.98 3.64,-1.44 7.53,-2.17 11.68,-2.17 3.33,0 6.11,0.67 8.33,2.03 2.23,1.35 3.34,3.44 3.34,6.26 0,2.39 -0.63,4.63 -1.88,6.73 -1.26,2.1 -2.98,4.02 -5.18,5.75 -2.2,1.73 -4.68,3.28 -7.44,4.66 -2.76,1.38 -5.67,2.57 -8.71,3.58 -3.05,1.01 -6.04,1.79 -8.99,2.35l0.09 -0.94zm42.45 14.69c0.63,0 1.29,-0.25 1.98,-0.75 0.69,-0.5 1.41,-1.36 2.17,-2.59 0.75,-1.22 1.57,-2.94 2.45,-5.13 0.88,-2.2 1.82,-5.02 2.83,-8.48l-2.45 10.26c-1.57,5.02 -3.66,8.46 -6.26,10.31 -2.6,1.85 -5.57,2.78 -8.9,2.78 -3.95,0 -6.89,-1.02 -8.8,-3.06 -1.91,-2.04 -2.87,-4.94 -2.87,-8.71 0,-3.64 0.61,-7.34 1.84,-11.11 1.23,-3.77 2.89,-7.36 4.99,-10.78 2.1,-3.42 4.46,-6.47 7.06,-9.13 2.6,-2.67 5.32,-4.79 8.14,-6.36 2.83,-1.57 5.56,-2.35 8.19,-2.35 2.01,0 3.56,0.63 4.66,1.88 1.1,1.26 1.49,3.48 1.18,6.69l-1.04 0.57c0.31,-1.57 0.31,-2.72 0,-3.44 -0.31,-0.72 -0.85,-1.08 -1.6,-1.08 -1.32,0 -2.87,1.04 -4.66,3.11 -1.79,2.07 -3.52,4.82 -5.18,8.24 -1.66,3.42 -3.06,7.24 -4.19,11.44 -1.13,4.21 -1.7,8.44 -1.7,12.71 0,1.76 0.16,3.03 0.47,3.81 0.31,0.78 0.88,1.18 1.7,1.18zm17.42 -43.69c3.45,-0.06 6.51,-0.2 9.18,-0.42 2.67,-0.22 5.29,-0.55 7.86,-0.99l-12.71 42.19c-0.31,1 -0.45,1.8 -0.42,2.4 0.03,0.6 0.19,1 0.47,1.22 0.28,0.22 0.64,0.33 1.08,0.33 0.57,0 1.29,-0.33 2.17,-0.99 0.88,-0.66 1.82,-2.31 2.82,-4.94l1.98 -5.27 1.79 0 -2.35 6.88c-1.38,3.95 -3.34,6.56 -5.89,7.81 -2.54,1.26 -5.07,1.88 -7.58,1.88 -3.83,0 -6.56,-1.1 -8.19,-3.3 -0.94,-1.32 -1.46,-3.04 -1.55,-5.18 -0.09,-2.13 0.3,-4.71 1.18,-7.72l10.17 -33.9z"/>
 </g>
</svg>
